# xmcd
#
# Track frame offsets:
#	150
#	13249
#	26145
#	39520
#	51416
#	63518
#	75088
#	89386
#	102911
#	115019
#	127080
#	139764
#	153427
#	167416
#	181189
#	194456
#	206832
#	219401
#
# Disc length: 3084
#
# Revision: 2
# Processed by: cddbd v1.5.1PL0 Copyright (c) Steve Scherf et al.
# Submitted via: EasyCDDAExtractor 5.0.7
# Normalized: r1:DSETVAR1
#
DISCID=f70c0a12
DTITLE=Various Artist - The Great Legends Of Country [CD3)
DYEAR=1900
DGENRE=Country
TTITLE0=Sons of the Pioneers - Have I Told You Lately That I Love You (2-Sep-1946)
TTITLE1=Wilf Carter - I've Hung Up My Chaps And Saddle (30-Jun-1944)
TTITLE2=Tex Ritter - Jealous Heart (20-Sep-1944)
TTITLE3=Roy Acuff - Just To Ease My Worried Mind (11-Apr-1940)
TTITLE4=Gene Autry - (I've Got Spurs That) Jingle, Jingle, Jingle (10-Jun-1942)
TTITLE5=Bill Monroe and His Bluegrass Boys - Orange Blossom Special (2-Oct-1941)
TTITLE6=The Carter Family - Answer To Sleeping Willow (9-Jun-1936)
TTITLE7=Jimmie Rodgers - Moonlight And Skies (30-Jun-1930)
TTITLE8=Bob Wills and His Texas Playboys - Take Me Back To Tulsa (26-Feb-1941)
TTITLE9=Hank Snow - Brand On My Heart (17-Dec-1945)
TTITLE10=Jack Guthrie - Oklahoma Hills (1945)
TTITLE11=Shelton Brothers - Just Because (23-Feb-1935)
TTITLE12=Rex Griffin - The Last Letter (13-May-1937)
TTITLE13=Wilf Carter - Plant Some Flowers By My Graveside (3-Jul-1944)
TTITLE14=Roy Acuff and His Crazy Tennesseans - Great Speckled Bird (20-Oct-1936)
TTITLE15=Bill Monroe and His Bluegrass Boys - No Letter In The Mail (7-Oct-1942)
TTITLE16=Jimmie Rodgers - Waiting For A Train (22-Oct-1928)
TTITLE17=Gene Autry - Back In The Saddle Again (18-Apr-1939)
EXTD=
EXTT0=
EXTT1=
EXTT2=
EXTT3=
EXTT4=
EXTT5=
EXTT6=
EXTT7=
EXTT8=
EXTT9=
EXTT10=
EXTT11=
EXTT12=
EXTT13=
EXTT14=
EXTT15=
EXTT16=
EXTT17=
PLAYORDER=
